# xmcd
#
# Track frame offsets: 
#        150
#        58313
#        105009
#        133782
#        167919
#        205557
#        255617
#        281947
#
# Disc length: 4468 seconds
#
# Revision: 0
# Processed by: cddbd v1.5.2PL0 Copyright (c) Steve Scherf et al.
# Submitted via: ExactAudioCopy v1.0b1
#
DISCID=72117208
DTITLE=Eugen Jochum - The Complete Beethoven Symphonies 4 and 5 CD3
DYEAR=2012
DGENRE=Classic Rock
TTITLE0=Symphony No. 4 In B Flat Major, Op. 60: I Adagio - Allegro viv
TTITLE0=ace
TTITLE1=Symphony No. 4 In B Flat Major, Op. 60: II Adagio
TTITLE2=Symphony No. 4 In B Flat Major, Op. 60: III Allegro vivace
TTITLE3=Symphony No. 4 In B Flat Major, Op. 60: IV Allegro ma non trop
TTITLE3=po
TTITLE4=Symphony No.5 in C minor, Op.67: 1. Allegro con brio
TTITLE5=Symphony No.5 in C minor, Op.67: 2. Andante con moto
TTITLE6=Symphony No.5 in C minor, Op.67: 3. Allegro
TTITLE7=Symphony No.5 in C minor, Op.67: 4. Allegro
EXTD=
EXTT0=
EXTT1=
EXTT2=
EXTT3=
EXTT4=
EXTT5=
EXTT6=
EXTT7=
PLAYORDER=
